<mxfile host="app.diagrams.net" modified="2022-02-13T23:19:00.964Z" agent="5.0 (Windows NT 10.0; Win64; x64) AppleWebKit/537.36 (KHTML, like Gecko) Chrome/98.0.4758.82 Safari/537.36" etag="9Q2hIXHtjUTwMO2hrK68" version="16.5.6" type="github">
  <diagram id="C5RBs43oDa-KdzZeNtuy" name="Page-1">
    <mxGraphModel dx="1422" dy="794" grid="1" gridSize="10" guides="1" tooltips="1" connect="1" arrows="1" fold="1" page="1" pageScale="1" pageWidth="827" pageHeight="1169" math="0" shadow="0">
      <root>
        <mxCell id="WIyWlLk6GJQsqaUBKTNV-0" />
        <mxCell id="WIyWlLk6GJQsqaUBKTNV-1" parent="WIyWlLk6GJQsqaUBKTNV-0" />
        <mxCell id="WIyWlLk6GJQsqaUBKTNV-2" value="" style="rounded=0;html=1;jettySize=auto;orthogonalLoop=1;fontSize=11;endArrow=block;endFill=0;endSize=8;strokeWidth=1;shadow=0;labelBackgroundColor=none;edgeStyle=orthogonalEdgeStyle;" parent="WIyWlLk6GJQsqaUBKTNV-1" source="WIyWlLk6GJQsqaUBKTNV-3" target="WIyWlLk6GJQsqaUBKTNV-6" edge="1">
          <mxGeometry relative="1" as="geometry" />
        </mxCell>
        <mxCell id="WIyWlLk6GJQsqaUBKTNV-3" value="&quot;Introduzca la distancia recorrida (km)&quot;" style="rounded=1;whiteSpace=wrap;html=1;fontSize=12;glass=0;strokeWidth=1;shadow=0;" parent="WIyWlLk6GJQsqaUBKTNV-1" vertex="1">
          <mxGeometry x="160" y="60" width="140" height="60" as="geometry" />
        </mxCell>
        <mxCell id="rFqJQ763wm51LdH-EZaU-2" style="edgeStyle=orthogonalEdgeStyle;rounded=0;orthogonalLoop=1;jettySize=auto;html=1;exitX=0.5;exitY=1;exitDx=0;exitDy=0;entryX=0.5;entryY=0;entryDx=0;entryDy=0;" edge="1" parent="WIyWlLk6GJQsqaUBKTNV-1" source="WIyWlLk6GJQsqaUBKTNV-6" target="rFqJQ763wm51LdH-EZaU-1">
          <mxGeometry relative="1" as="geometry" />
        </mxCell>
        <mxCell id="WIyWlLk6GJQsqaUBKTNV-6" value="distancia=input" style="rhombus;whiteSpace=wrap;html=1;shadow=0;fontFamily=Helvetica;fontSize=12;align=center;strokeWidth=1;spacing=6;spacingTop=-4;" parent="WIyWlLk6GJQsqaUBKTNV-1" vertex="1">
          <mxGeometry x="180" y="170" width="100" height="80" as="geometry" />
        </mxCell>
        <mxCell id="rFqJQ763wm51LdH-EZaU-4" style="edgeStyle=orthogonalEdgeStyle;rounded=0;orthogonalLoop=1;jettySize=auto;html=1;exitX=0.5;exitY=1;exitDx=0;exitDy=0;entryX=0.5;entryY=0;entryDx=0;entryDy=0;" edge="1" parent="WIyWlLk6GJQsqaUBKTNV-1" source="rFqJQ763wm51LdH-EZaU-1" target="rFqJQ763wm51LdH-EZaU-3">
          <mxGeometry relative="1" as="geometry" />
        </mxCell>
        <mxCell id="rFqJQ763wm51LdH-EZaU-1" value="&lt;span style=&quot;color: rgb(33 , 37 , 41) ; font-family: &amp;#34;open sans&amp;#34; , sans-serif ; font-size: 15px ; text-align: left ; background-color: rgba(255 , 255 , 255 , 0.85)&quot;&gt;Introduzca el tiempo del recorrido (min).&lt;/span&gt;" style="rounded=1;whiteSpace=wrap;html=1;fontSize=12;glass=0;strokeWidth=1;shadow=0;" vertex="1" parent="WIyWlLk6GJQsqaUBKTNV-1">
          <mxGeometry x="145" y="280" width="170" height="70" as="geometry" />
        </mxCell>
        <mxCell id="rFqJQ763wm51LdH-EZaU-5" style="edgeStyle=orthogonalEdgeStyle;rounded=0;orthogonalLoop=1;jettySize=auto;html=1;exitX=0.5;exitY=1;exitDx=0;exitDy=0;" edge="1" parent="WIyWlLk6GJQsqaUBKTNV-1" source="rFqJQ763wm51LdH-EZaU-3">
          <mxGeometry relative="1" as="geometry">
            <mxPoint x="230" y="490" as="targetPoint" />
          </mxGeometry>
        </mxCell>
        <mxCell id="rFqJQ763wm51LdH-EZaU-3" value="tiempo=input" style="rhombus;whiteSpace=wrap;html=1;shadow=0;fontFamily=Helvetica;fontSize=12;align=center;strokeWidth=1;spacing=6;spacingTop=-4;" vertex="1" parent="WIyWlLk6GJQsqaUBKTNV-1">
          <mxGeometry x="180" y="380" width="100" height="80" as="geometry" />
        </mxCell>
        <mxCell id="rFqJQ763wm51LdH-EZaU-8" style="edgeStyle=orthogonalEdgeStyle;rounded=0;orthogonalLoop=1;jettySize=auto;html=1;exitX=0.5;exitY=1;exitDx=0;exitDy=0;entryX=0.5;entryY=0;entryDx=0;entryDy=0;" edge="1" parent="WIyWlLk6GJQsqaUBKTNV-1" source="rFqJQ763wm51LdH-EZaU-6" target="rFqJQ763wm51LdH-EZaU-7">
          <mxGeometry relative="1" as="geometry" />
        </mxCell>
        <mxCell id="rFqJQ763wm51LdH-EZaU-6" value="Velocidad=distancia/&lt;br&gt;(tiempo/60)" style="rhombus;whiteSpace=wrap;html=1;shadow=0;fontFamily=Helvetica;fontSize=12;align=center;strokeWidth=1;spacing=6;spacingTop=-4;" vertex="1" parent="WIyWlLk6GJQsqaUBKTNV-1">
          <mxGeometry x="162.5" y="490" width="137.5" height="110" as="geometry" />
        </mxCell>
        <mxCell id="rFqJQ763wm51LdH-EZaU-7" value="&lt;span style=&quot;color: rgb(33 , 37 , 41) ; font-family: &amp;#34;open sans&amp;#34; , sans-serif ; font-size: 15px ; text-align: left ; background-color: rgba(255 , 255 , 255 , 0.85)&quot;&gt;&quot;Se ha desplazado a una velocidad de&quot; + &amp;amp;velocidad + &quot;km/h.&quot;&lt;/span&gt;" style="rounded=1;whiteSpace=wrap;html=1;fontSize=12;glass=0;strokeWidth=1;shadow=0;" vertex="1" parent="WIyWlLk6GJQsqaUBKTNV-1">
          <mxGeometry x="146.25" y="630" width="170" height="70" as="geometry" />
        </mxCell>
      </root>
    </mxGraphModel>
  </diagram>
</mxfile>
